# xmcd
# 
# Track frame offsets:
#     183
#     44035
#     65180
#     94873
#     128810
#     171695
# 
# Disc length: 2680
# 
# Revision: 3
# Processed by: cddbd v1.5.2PL0 Copyright (c) Steve Scherf et al.
# Submitted via: BonkEnc v1.0.8
# 
DISCID=5f0a7606
DTITLE=Sonny Sharrock - Ask The Ages
DYEAR=1991
DGENRE=Contemporary Jazz
TTITLE0=Promises Kept
TTITLE1=Who Does She Hope To Be?
TTITLE2=Little Rock
TTITLE3=As We Used To Sing
TTITLE4=Many Mansions
TTITLE5=Once Upon A Time
EXTD=
EXTT0=
EXTT1=
EXTT2=
EXTT3=
EXTT4=
EXTT5=
PLAYORDER=
